<svg width="44" height="50" viewBox="0 0 44 50" fill="none" xmlns="http://www.w3.org/2000/svg">
<path fill-rule="evenodd" clip-rule="evenodd" d="M22 18C26.4183 18 30 14.4183 30 10C30 5.58172 26.4183 2 22 2C17.5817 2 14 5.58172 14 10C14 14.4183 17.5817 18 22 18ZM22 20C27.5228 20 32 15.5228 32 10C32 4.47715 27.5228 0 22 0C16.4772 0 12 4.47715 12 10C12 15.5228 16.4772 20 22 20Z" fill="#525252"/>
<path fill-rule="evenodd" clip-rule="evenodd" d="M0 46C0 33.8497 9.84974 24 22 24C34.1503 24 44 33.8497 44 46H42C42 34.9543 33.0457 26 22 26C10.9543 26 2 34.9543 2 46H0Z" fill="#525252"/>
<path d="M30 43.7143C30 47.1858 27.1858 50 23.7143 50L20.2857 50C16.8142 50 14 47.1858 14 43.7143C14 40.2428 16.8142 37.4286 20.2857 37.4286L23.7143 37.4286C27.1858 37.4286 30 40.2428 30 43.7143Z" fill="#EE4853"/>
<path fill-rule="evenodd" clip-rule="evenodd" d="M17 37C17 34.2386 19.2386 32 22 32C24.7614 32 27 34.2386 27 37V39H25V37C25 35.3431 23.6569 34 22 34C20.3431 34 19 35.3431 19 37V39H17V37Z" fill="#EE4853"/>
<path d="M23.5 43.5C23.5 44.3284 22.8284 45 22 45C21.1716 45 20.5 44.3284 20.5 43.5C20.5 42.6716 21.1716 42 22 42C22.8284 42 23.5 42.6716 23.5 43.5Z" fill="white"/>
</svg>
