<?xml version="1.0" encoding="utf-8"?>
<!-- Generator: Adobe Illustrator 23.0.3, SVG Export Plug-In . SVG Version: 6.00 Build 0)  -->
<svg version="1.1" id="Layer_1" xmlns="http://www.w3.org/2000/svg" xmlns:xlink="http://www.w3.org/1999/xlink" x="0px" y="0px"
	 viewBox="0 0 21 21" style="enable-background:new 0 0 21 21;" xml:space="preserve">
<style type="text/css">
	.st0{fill:#135EC7;}
</style>
<path class="st0" d="M8.4,0.7c-4,0.8-7.1,4.1-7.8,8.1l6-2L8.4,0.7z"/>
<path class="st0" d="M0.6,9.6c0,0.3,0,0.6,0,0.9c0,3.8,2.1,7.1,5.3,8.8l0-6.2L0.6,9.6z"/>
<path class="st0" d="M6.6,19.7c1.2,0.5,2.5,0.8,3.9,0.8c2.6,0,5-1,6.8-2.7l-5.9-1.9L6.6,19.7z"/>
<path class="st0" d="M17.9,17.2c1.6-1.8,2.6-4.1,2.6-6.7c0-1.5-0.3-3-1-4.3l-3.7,5.2L17.9,17.2z"/>
<path class="st0" d="M19.2,5.6c-1.7-3-5-5.1-8.7-5.1c-0.5,0-1,0-1.4,0.1l3.8,5.2L19.2,5.6z"/>
</svg>
